name analog
datacolumns 19
datarows 51
range 0.1695 0.1945
endheader
time	ground_force_vx	ground_force_vy	ground_force_vz	ground_force_px	ground_force_py	ground_force_pz	l_ground_force_vx	l_ground_force_vy	l_ground_force_vz	l_ground_force_px	l_ground_force_py	l_ground_force_pz	ground_torque_x	ground_torque_y	ground_torque_z	l_ground_torque_x	l_ground_torque_y	l_ground_torque_z
0.1695	-0.0	-0.0	-0.0	-17.80525016784668	98.77668762207033	-589.617431640625	-0.0640831887722015	-81.28784942626953	-555.2772216796875	-0.0	-0.0	-0.0	-0.0	-0.0	-0.0	83832.2421875	-884.8292846679688	-10153.1611328125
0.17	-0.0	-0.0	-0.0	-17.850122451782227	98.32310485839844	-590.8382568359375	-0.278992086648941	-81.36923217773438	-555.0018310546875	-0.0	-0.0	-0.0	-0.0	-0.0	-0.0	83690.3515625	-472.6158447265625	-10316.3291015625
0.1705	-0.0	-0.0	-0.0	-16.80449104309082	98.75648498535156	-592.3136596679688	-0.1900560557842254	-82.29051971435547	-554.6024780273438	-0.0	-0.0	-0.0	-0.0	-0.0	-0.0	83448.546875	209.288818359375	-10524.2421875
0.171	-0.0	-0.0	-0.0	-16.22870635986328	99.15377044677734	-595.18896484375	-0.6143593788146973	-82.68148803710938	-556.6227416992188	-0.0	-0.0	-0.0	-0.0	-0.0	-0.0	83009.3515625	456.4440612792969	-10711.0322265625
0.1715	-0.0	-0.0	-0.0	-15.45974063873291	99.0852508544922	-594.0487060546875	-0.709686279296875	-83.60253143310547	-556.623046875	-0.0	-0.0	-0.0	-0.0	-0.0	-0.0	82895.6875	929.1007690429688	-10984.6357421875
0.17200000000000001	-0.0	-0.0	-0.0	-14.96684455871582	99.06488037109376	-596.2489624023438	-1.46971333026886	-83.79817962646484	-559.1898803710938	-0.0	-0.0	-0.0	-0.0	-0.0	-0.0	83006.546875	1340.55419921875	-11139.9296875
0.17250000000000001	-0.0	-0.0	-0.0	-14.657879829406738	99.0238800048828	-598.286865234375	-1.6235311031341553	-84.10140228271484	-560.9351806640625	-0.0	-0.0	-0.0	-0.0	-0.0	-0.0	83242.3359375	1906.5120849609373	-11337.3837890625
0.17300000000000001	-0.0	-0.0	-0.0	-14.232378959655762	99.29127502441406	-600.0232543945312	-2.5532984733581543	-84.93840789794922	-562.8323974609375	-0.0	-0.0	-0.0	-0.0	-0.0	-0.0	83129.296875	2141.479736328125	-11539.49609375
0.17350000000000002	-0.0	-0.0	-0.0	-14.018885612487791	98.61959075927734	-601.1942138671875	-2.946816921234131	-85.161376953125	-565.5175170898438	-0.0	-0.0	-0.0	-0.0	-0.0	-0.0	83746.0703125	2054.81103515625	-11853.2060546875
0.17400000000000002	-0.0	-0.0	-0.0	-13.539225578308104	98.3315887451172	-603.666748046875	-2.8083364963531494	-85.89830017089844	-568.1893310546875	-0.0	-0.0	-0.0	-0.0	-0.0	-0.0	83906.078125	2503.180419921875	-12041.4208984375
0.17450000000000002	-0.0	-0.0	-0.0	-13.188225746154783	98.22760009765624	-605.3270263671875	-3.184847593307495	-86.0166244506836	-572.1828002929688	-0.0	-0.0	-0.0	-0.0	-0.0	-0.0	84309.859375	2832.445556640625	-12226.1455078125
0.17500000000000002	-0.0	-0.0	-0.0	-12.81972599029541	98.33739471435548	-609.42333984375	-3.2912702560424805	-86.32918548583984	-576.8817138671875	-0.0	-0.0	-0.0	-0.0	-0.0	-0.0	85167.625	2931.318115234375	-12344.91015625
0.17550000000000002	-0.0	-0.0	-0.0	-12.830784797668455	98.02251434326172	-610.83544921875	-3.903274536132813	-86.8890151977539	-579.8636474609375	-0.0	-0.0	-0.0	-0.0	-0.0	-0.0	85347.2265625	3130.923095703125	-12510.2841796875
0.176	-0.0	-0.0	-0.0	-12.463245391845703	97.9805145263672	-612.3932495117188	-3.863962411880493	-87.6151123046875	-583.3153076171875	-0.0	-0.0	-0.0	-0.0	-0.0	-0.0	85895.8046875	3315.1044921875	-12744.302734375
0.1765	-0.0	-0.0	-0.0	-12.468420028686523	98.06947326660156	-614.8029174804688	-3.922986745834351	-88.01746368408203	-587.3118286132812	-0.0	-0.0	-0.0	-0.0	-0.0	-0.0	86229.0625	3519.536865234375	-12823.5322265625
0.177	-0.0	-0.0	-0.0	-11.954208374023438	97.91210174560548	-615.7971801757812	-4.287473201751709	-88.41000366210938	-588.6318969726562	-0.0	-0.0	-0.0	-0.0	-0.0	-0.0	86625.7421875	3674.378173828125	-12946.0107421875
0.1775	-0.0	-0.0	-0.0	-11.712273597717283	97.9074935913086	-616.6522216796875	-4.464755535125732	-88.3902587890625	-592.3541870117188	-0.0	-0.0	-0.0	-0.0	-0.0	-0.0	86876.578125	4026.95361328125	-13193.3232421875
0.178	-0.0	-0.0	-0.0	-11.546412467956545	97.8651885986328	-616.21484375	-4.278022289276123	-88.33073425292969	-595.1467895507812	-0.0	-0.0	-0.0	-0.0	-0.0	-0.0	87234.875	4122.02587890625	-13364.6005859375
0.1785	-0.0	-0.0	-0.0	-11.593360900878906	97.81461334228516	-616.8208618164062	-4.043000221252441	-88.15608215332031	-597.6690063476562	-0.0	-0.0	-0.0	-0.0	-0.0	-0.0	87659.4140625	4478.77001953125	-13552.0693359375
0.179	-0.0	-0.0	-0.0	-11.775787353515623	97.77987670898438	-614.7715454101562	-3.785874366760254	-87.48695373535156	-599.0995483398438	-0.0	-0.0	-0.0	-0.0	-0.0	-0.0	87746.9765625	4681.01806640625	-13561.310546875
0.1795	-0.0	-0.0	-0.0	-11.01926040649414	97.26618957519533	-614.4483032226562	-2.867215394973755	-87.39012908935547	-601.8123168945312	-0.0	-0.0	-0.0	-0.0	-0.0	-0.0	87920.0390625	4693.09814453125	-13662.98046875
0.18	-0.0	-0.0	-0.0	-10.794471740722656	96.57778930664062	-613.2903442382812	-2.278148889541626	-86.68364715576172	-600.2385864257812	-0.0	-0.0	-0.0	-0.0	-0.0	-0.0	88071.6640625	4888.99658203125	-13655.6357421875
0.1805	-0.0	-0.0	-0.0	-10.477564811706545	95.42782592773438	-614.1921997070312	-1.8225611448287964	-86.53515625	-602.238525390625	-0.0	-0.0	-0.0	-0.0	-0.0	-0.0	88013.8671875	5467.4384765625	-13671.404296875
0.181	-0.0	-0.0	-0.0	-10.308042526245115	94.9238739013672	-611.53662109375	-1.685504913330078	-86.43911743164062	-602.206787109375	-0.0	-0.0	-0.0	-0.0	-0.0	-0.0	87780.3984375	5662.6171875	-13783.06640625
0.1815	-0.0	-0.0	-0.0	-9.945656776428224	94.32159423828124	-609.30029296875	-1.1735427379608154	-86.42650604248047	-600.9698486328125	-0.0	-0.0	-0.0	-0.0	-0.0	-0.0	87784.359375	6097.72607421875	-13720.7841796875
0.182	-0.0	-0.0	-0.0	-9.680508613586426	93.34356689453124	-608.4430541992188	-1.3234531879425049	-86.9026107788086	-602.31494140625	-0.0	-0.0	-0.0	-0.0	-0.0	-0.0	87419.7109375	6452.029296875	-13743.837890625
0.1825	-0.0	-0.0	-0.0	-9.58907413482666	92.15872192382812	-604.65234375	-1.5967941284179688	-86.79988098144531	-599.2775268554688	-0.0	-0.0	-0.0	-0.0	-0.0	-0.0	87051.546875	6870.07080078125	-13926.4501953125
0.183	-0.0	-0.0	-0.0	-9.569270133972168	90.95469665527344	-601.2926635742188	-2.0881025791168213	-87.13272857666016	-599.923095703125	-0.0	-0.0	-0.0	-0.0	-0.0	-0.0	86831.765625	7295.01708984375	-14011.34765625
0.1835	-0.0	-0.0	-0.0	-9.077576637268066	91.00213623046876	-599.3463134765625	-2.613715171813965	-87.03778076171875	-599.0377197265625	-0.0	-0.0	-0.0	-0.0	-0.0	-0.0	86455.25	7869.41162109375	-14205.5537109375
0.184	-0.0	-0.0	-0.0	-9.234010696411133	90.46446990966795	-597.5747680664062	-3.486639499664306	-87.5330810546875	-597.9907836914062	-0.0	-0.0	-0.0	-0.0	-0.0	-0.0	86085.8203125	8103.20458984375	-14254.451171875
0.1845	-0.0	-0.0	-0.0	-8.941829681396484	89.37581634521484	-596.7918701171875	-4.237464427947998	-88.03009033203125	-597.2931518554688	-0.0	-0.0	-0.0	-0.0	-0.0	-0.0	85406.5703125	8629.689453125	-14382.7685546875
0.185	-0.0	-0.0	-0.0	-8.54121208190918	88.59654998779297	-595.2866821289062	-4.550781726837158	-88.6485595703125	-596.5140991210938	-0.0	-0.0	-0.0	-0.0	-0.0	-0.0	84911.96875	8885.5810546875	-14547.2705078125
0.1855	-0.0	-0.0	-0.0	-8.676276206970215	87.4140853881836	-591.4859619140625	-4.947031021118164	-89.25186157226562	-594.4417114257812	-0.0	-0.0	-0.0	-0.0	-0.0	-0.0	84512.5859375	9561.271484375	-14568.513671875
0.186	-0.0	-0.0	-0.0	-8.11860179901123	86.87997436523438	-590.2515258789062	-5.249454498291016	-89.6050033569336	-593.9068603515625	-0.0	-0.0	-0.0	-0.0	-0.0	-0.0	84019.109375	9849.0390625	-14539.1796875
0.1865	-0.0	-0.0	-0.0	-7.694857597351074	85.58766174316406	-587.2481079101562	-6.209754943847656	-90.59725189208984	-591.6273193359375	-0.0	-0.0	-0.0	-0.0	-0.0	-0.0	83528.7109375	10380.544921875	-14672.7587890625
0.187	-0.0	-0.0	-0.0	-6.936155319213867	85.38693237304688	-586.2786254882812	-6.716156005859375	-91.42891693115234	-588.034423828125	-0.0	-0.0	-0.0	-0.0	-0.0	-0.0	83012.828125	10871.9208984375	-14755.373046875
0.1875	-0.0	-0.0	-0.0	-6.28894567489624	85.03041076660156	-583.1875610351562	-7.629127502441406	-92.0056610107422	-585.94091796875	-0.0	-0.0	-0.0	-0.0	-0.0	-0.0	82018.1328125	11655.3076171875	-14796.0029296875
0.188	-0.0	-0.0	-0.0	-5.865478992462158	84.51846313476562	-579.83447265625	-8.18246078491211	-92.91883087158205	-582.716552734375	-0.0	-0.0	-0.0	-0.0	-0.0	-0.0	81123.109375	12216.3984375	-14913.7236328125
0.1885	-0.0	-0.0	-0.0	-5.864068508148193	83.55941772460938	-576.831787109375	-9.230133056640623	-93.57892608642578	-579.9242553710938	-0.0	-0.0	-0.0	-0.0	-0.0	-0.0	80881.09375	12767.2216796875	-14996.546875
0.189	-0.0	-0.0	-0.0	-5.642807483673096	82.62388610839844	-575.5086059570312	-10.620176315307615	-94.01648712158205	-576.4339599609375	-0.0	-0.0	-0.0	-0.0	-0.0	-0.0	79743.015625	13434.5234375	-15176.8916015625
0.1895	-0.0	-0.0	-0.0	-6.155525207519531	82.44910430908203	-570.9222412109375	-11.66733455657959	-94.61367797851562	-572.09228515625	-0.0	-0.0	-0.0	-0.0	-0.0	-0.0	79015.2890625	13794.1455078125	-15257.0869140625
0.19	-0.0	-0.0	-0.0	-6.288614749908447	81.91084289550781	-568.5357055664062	-12.756476402282717	-94.99510955810548	-568.5731201171875	-0.0	-0.0	-0.0	-0.0	-0.0	-0.0	78241.78125	14403.2783203125	-15339.845703125
0.1905	-0.0	-0.0	-0.0	-6.470279216766357	81.53162384033203	-566.2374267578125	-13.462665557861328	-95.32357788085938	-567.371337890625	-0.0	-0.0	-0.0	-0.0	-0.0	-0.0	77419.25	15080.26171875	-15392.6123046875
0.191	-0.0	-0.0	-0.0	-6.804631233215332	81.11052703857422	-561.7437133789062	-14.594439506530762	-96.1213607788086	-565.80615234375	-0.0	-0.0	-0.0	-0.0	-0.0	-0.0	76551.65625	15376.2041015625	-15518.41015625
0.1915	-0.0	-0.0	-0.0	-6.894209384918213	81.00102996826172	-558.0414428710938	-15.301240921020508	-96.38036346435548	-561.8695068359375	-0.0	-0.0	-0.0	-0.0	-0.0	-0.0	76121.3515625	15932.0830078125	-15534.365234375
0.192	-0.0	-0.0	-0.0	-7.47548246383667	80.44136047363281	-554.6829833984375	-16.454574584960938	-96.80056762695312	-558.3782348632812	-0.0	-0.0	-0.0	-0.0	-0.0	-0.0	75429.9453125	16466.73828125	-15536.1787109375
0.1925	-0.0	-0.0	-0.0	-7.98305606842041	80.2861328125	-552.4439697265625	-17.23381805419922	-97.13003540039062	-556.3777465820312	-0.0	-0.0	-0.0	-0.0	-0.0	-0.0	74636.8046875	16713.890625	-15439.787109375
0.193	-0.0	-0.0	-0.0	-8.457706451416016	80.06210327148438	-549.7987060546875	-17.36768341064453	-98.03707885742188	-553.3040161132812	-0.0	-0.0	-0.0	-0.0	-0.0	-0.0	73862.1171875	17417.83984375	-15492.8994140625
0.1935	-0.0	-0.0	-0.0	-9.185632705688477	79.68258666992188	-544.7981567382812	-17.964859008789062	-97.9919891357422	-551.6595458984375	-0.0	-0.0	-0.0	-0.0	-0.0	-0.0	73377.375	17906.67578125	-15261.9609375
0.194	-0.0	-0.0	-0.0	-9.700807571411133	79.68258666992188	-541.5296630859375	-17.986501693725586	-98.74365234375	-549.2216796875	-0.0	-0.0	-0.0	-0.0	-0.0	-0.0	72741.140625	18370.33203125	-15256.046875
0.1945	-0.0	-0.0	-0.0	-10.496596336364746	78.45439147949219	-536.3386840820312	-18.406801223754883	-98.83197021484376	-546.2449951171875	-0.0	-0.0	-0.0	-0.0	-0.0	-0.0	72233.2265625	18885.166015625	-15100.2255859375
